.
..............................Site Info...........................

 -   http://www.scenetime.com  *_*   

Scenetime .Always on time . friendly online private torrent community ..

     We care to share . Join us on  http://www.scenetime.com 

    Be the first to get new release at  http://www.scenetime.com

        Seed back for speed


...................................NFO:.................................................John Carter 2012 TS FULL LiNE READNFO XviD - ILLUMINATI
 
http://www.imdb.com/title/tt0401729/

Video
ID                               : 0
Format                           : MPEG-4 Visual
Format profile                   : Advanced Simple@L5
Format settings, BVOP            : 2
Format settings, QPel            : No
Format settings, GMC             : No warppoints
Format settings, Matrix          : Default (H.263)
Muxing mode                      : Packed bitstream
Codec ID                         : XVID
Codec ID/Hint                    : XviD
Duration                         : 2h 2mn
Bit rate                         : 1 896 Kbps
Width                            : 720 pixels
Height                           : 288 pixels
Display aspect ratio             : 2.500
Frame rate                       : 25.000 fps
Color space                      : YUV
Chroma subsampling               : 4:2:0
Bit depth                        : 8 bits
Scan type                        : Progressive
Compression mode                 : Lossy
Bits/(Pixel*Frame)               : 0.366
Stream size                      : 1.62 GiB (93%)
Writing library                  : XviD 64

Audio
ID                               : 1
Format                           : MPEG Audio
Format version                   : Version 1
Format profile                   : Layer 3
Mode                             : Joint stereo
Mode extension                   : MS Stereo
Codec ID                         : 55
Codec ID/Hint                    : MP3
Duration                         : 2h 2mn
Bit rate mode                    : Constant
Bit rate                         : 128 Kbps
Channel(s)                       : 2 channels
Sampling rate                    : 44.1 KHz
Compression mode                 : Lossy
Stream size                      : 112 MiB (6%)
Alignment                        : Split accross interleaves
Interleave, duration             : 40 ms (1.00 video frame)

Sources - 
	  V: 26k 
	  A: Thanks :P


Notes -
Thanks to 26k for the 720p source files.
cropped rotated and perspective filtered
audio is new full LiNE 
hardcoded english subs for alien speak


[IMG]http://i.imgur.com/gv1O4.png[/IMG]
[IMG]http://i.imgur.com/XxPqd.png[/IMG]
[IMG]http://i.imgur.com/D6eHH.png[/IMG]
[IMG]http://i.imgur.com/lWwTI.png[/IMG]
[IMG]http://i.imgur.com/JxqKo.png[/IMG]
[IMG]http://i.imgur.com/wbFbu.png[/IMG]
[IMG]http://i.imgur.com/EDdmp.png[/IMG]